HIERARCHY
ROOT hip
{
	OFFSET	0.00  0.00  0.00 
	CHANNELS 6 Xposition Yposition Zposition Xrotation Zrotation Yrotation
	JOINT abdomen
	{
		OFFSET	0.000000 1.799998 0.000000
		CHANNELS 3 Xrotation Zrotation Yrotation
		JOINT chest
		{
			OFFSET	0.000000 4.464001 -0.360000
			CHANNELS 3 Xrotation Zrotation Yrotation
			JOINT neck
			{
				OFFSET	0.000000 5.400002 -0.144000
				CHANNELS 3 Xrotation Zrotation Yrotation
				JOINT head
				{
					OFFSET	0.000000 1.655998 0.000000
					CHANNELS 3 Xrotation Zrotation Yrotation
				}
			}
			JOINT lCollar
			{
				OFFSET	1.800000 3.528000 -0.432000
				CHANNELS 3 Yrotation Zrotation Xrotation
				JOINT lShldr
				{
					OFFSET	1.728000 0.000000 0.000000
					CHANNELS 3 Zrotation Yrotation Xrotation
					JOINT lForeArm
					{
						OFFSET	5.328000 0.000000 0.000000
						CHANNELS 3 Yrotation Zrotation Xrotation
						JOINT lHand
						{
							OFFSET	4.464000 0.000000 0.000000
							CHANNELS 3 Zrotation Yrotation Xrotation
						}
					}
				}
			}
			JOINT rCollar
			{
				OFFSET	-1.872000 3.528000 -0.432000
				CHANNELS 3 Yrotation Zrotation Xrotation
				JOINT rShldr
				{
					OFFSET	-1.656000 0.000000 0.000000
					CHANNELS 3 Zrotation Yrotation Xrotation
					JOINT rForeArm
					{
						OFFSET	-5.400000 0.000000 0.000000
						CHANNELS 3 Yrotation Zrotation Xrotation
						JOINT rHand
						{
							OFFSET	-4.392000 0.000000 0.000000
							CHANNELS 3 Zrotation Yrotation Xrotation
						}
					}
				}
			}
		}
	}
	JOINT lThigh
	{
		OFFSET	2.808000 -0.864002 0.720000
		CHANNELS 3 Xrotation Zrotation Yrotation
		JOINT lShin
		{
			OFFSET	-1.080000 -10.583999 0.000000
			CHANNELS 3 Xrotation Zrotation Yrotation
			JOINT lFoot
			{
				OFFSET	0.000000 -10.152000 -0.648000
				CHANNELS 3 Xrotation Yrotation Zrotation
				End Site
				{
					OFFSET 0.000000 -1.296000 2.448000
				}
			}
		}
	}
	JOINT rThigh
	{
		OFFSET	-2.808000 -0.864002 0.720000
		CHANNELS 3 Xrotation Zrotation Yrotation
		JOINT rShin
		{
			OFFSET	1.080000 -10.583999 0.000000
			CHANNELS 3 Xrotation Zrotation Yrotation
			JOINT rFoot
			{
				OFFSET	0.000000 -10.152000 -0.648000
				CHANNELS 3 Xrotation Yrotation Zrotation
				End Site
				{
					OFFSET 0.000000 -1.296000 2.448000
				}
			}
		}
	}
}
MOTION
Frames:     19
Frame Time: 0.033333
0.000000 23.151886 0.000000 0.000000 0.000000 0.000000 5.556531 -0.669609 10.362609 6.749427 -1.571457 13.394119 0.000000 0.000000 -13.542324 -19.613020 -6.606416 -17.232832 0.000000 0.000000 0.000000 0.000000 0.000000 0.000000 0.000000 0.000000 0.000000 0.000000 0.000000 0.000000 22.579109 3.129676 -2.696531 53.516357 25.299976 -10.646999 36.565670 0.408274 -19.921007 0.000000 0.000000 11.030626 0.000000 0.000000 0.000000 0.009766 0.000000 0.000000 -0.097656 0.000000 0.000000 0.000000 -0.019531 0.000000 0.009766 0.019531 -0.009766 0.166016 0.009766 0.000000 
0.000000 23.151886 0.000000 0.000000 0.000000 0.000000 5.535058 -0.684456 10.351892 6.413200 -1.583263 13.397655 0.000000 0.000000 -13.538689 -19.678028 -6.453370 -17.308096 0.000000 0.000000 0.000000 0.000000 0.000000 0.000000 0.000000 0.000000 0.000000 0.000000 0.000000 0.000000 22.694458 2.931918 -2.956088 54.052616 25.138786 -10.547241 36.575027 0.500448 -19.960503 0.000000 0.000000 10.766808 0.000000 0.000000 0.000000 0.009766 0.000000 0.000000 -0.097656 0.000000 0.000000 0.000000 -0.019531 0.000000 0.009766 0.019531 -0.009766 0.166016 0.009766 0.000000 
0.000000 23.151886 0.000000 0.000000 0.000000 0.000000 5.508010 -0.698905 10.341299 6.759793 -1.593773 13.401150 0.000000 0.000000 -13.535053 -19.721857 -6.287005 -17.373552 0.000000 0.000000 0.000000 0.000000 0.000000 0.000000 0.000000 0.000000 0.000000 0.000000 0.000000 0.000000 22.824472 2.719486 -3.212761 54.559799 24.991699 -10.493600 36.705601 0.578663 -20.000000 0.000000 0.000000 10.480477 0.000000 0.000000 0.000000 0.009766 0.000000 0.000000 -0.097656 0.000000 0.000000 0.000000 -0.019531 0.000000 0.009766 0.019531 -0.009766 0.166016 0.009766 0.000000 
0.000000 23.151886 0.000000 0.000000 0.000000 0.000000 5.476233 -0.712975 10.330842 7.106386 -1.603141 13.404600 0.000000 0.000000 -13.531419 -19.738293 -6.108368 -17.422108 0.000000 0.000000 0.000000 0.000000 0.000000 0.000000 0.000000 0.000000 0.000000 0.000000 0.000000 0.000000 22.961199 2.495380 -3.464797 55.014721 24.861946 -10.481209 36.911530 0.641577 -19.989592 0.000000 0.000000 10.173406 0.000000 0.000000 0.000000 0.009766 0.000000 0.000000 -0.097656 0.000000 0.000000 0.000000 -0.019531 0.000000 0.009766 0.019531 -0.009766 0.166016 0.009766 0.000000 
0.000000 23.151886 0.000000 0.000000 0.000000 0.000000 5.440526 -0.726680 10.320530 7.452979 -1.611510 13.408003 0.000000 0.000000 -13.527784 -19.721127 -5.918478 -17.446671 0.000000 0.000000 0.000000 0.000000 0.000000 0.000000 0.000000 0.000000 0.000000 0.000000 0.000000 0.000000 23.096685 2.262602 -3.710446 55.417919 24.749205 -10.499530 37.163742 0.689801 -19.979183 0.000000 0.000000 9.847321 0.000000 0.000000 0.000000 0.009766 0.000000 0.000000 -0.097656 0.000000 0.000000 0.000000 -0.019531 0.000000 0.009766 0.019531 -0.009766 0.166016 0.009766 0.000000 
0.000000 23.151886 0.000000 0.000000 0.000000 0.000000 5.401650 -0.740031 10.310377 7.799572 -1.619011 13.411355 0.000000 0.000000 -13.524149 -19.664146 -5.718327 -17.440147 0.000000 0.000000 0.000000 0.000000 0.000000 0.000000 0.000000 0.000000 0.000000 0.000000 0.000000 0.000000 23.222977 2.024150 -3.947957 55.775875 24.652262 -10.536607 37.437366 0.724413 -19.968775 0.000000 0.000000 9.503902 0.000000 0.000000 0.000000 0.009766 0.000000 0.000000 -0.097656 0.000000 0.000000 0.000000 -0.019531 0.000000 0.009766 0.019531 -0.009766 0.166016 0.009766 0.000000 
0.000000 23.151886 0.000000 0.000000 0.000000 0.000000 5.360323 -0.753034 10.300397 8.146164 -1.625765 13.414650 0.000000 0.000000 -13.520514 -19.561138 -5.508886 -17.395447 0.000000 0.000000 0.000000 0.000000 0.000000 0.000000 0.000000 0.000000 0.000000 0.000000 0.000000 0.000000 23.332119 1.783027 -4.175576 56.095047 24.569906 -10.580483 37.707520 0.746459 -19.958366 0.000000 0.000000 9.144794 0.000000 0.000000 0.000000 0.009766 0.000000 0.000000 -0.097656 0.000000 0.000000 0.000000 -0.019531 0.000000 0.009766 0.019531 -0.009766 0.166016 0.009766 0.000000 
0.000000 23.151886 0.000000 0.000000 0.000000 0.000000 5.317227 -0.765690 10.290607 8.492757 -1.631882 13.417883 0.000000 0.000000 -13.516879 -19.405888 -5.291100 -17.305479 0.000000 0.000000 0.000000 0.000000 0.000000 0.000000 0.000000 0.000000 0.000000 0.000000 0.000000 0.000000 23.416161 1.542231 -4.391553 56.381901 24.500921 -10.619203 37.949329 0.756949 -19.947960 0.000000 0.000000 8.771594 0.000000 0.000000 0.000000 0.009766 0.000000 0.000000 -0.097656 0.000000 0.000000 0.000000 -0.019531 0.000000 0.009766 0.019531 -0.009766 0.166016 0.009766 0.000000 
0.000000 23.151886 0.000000 0.000000 0.000000 0.000000 5.273008 -0.777995 10.281029 8.839350 -1.637458 13.421046 0.000000 0.000000 -13.513245 -19.192184 -5.065888 -17.163155 0.000000 0.000000 0.000000 0.000000 0.000000 0.000000 0.000000 0.000000 0.000000 0.000000 0.000000 0.000000 23.467146 1.304764 -4.594138 56.642910 24.444096 -10.640806 38.137920 0.756863 -19.937553 0.000000 0.000000 8.385865 0.000000 0.000000 0.000000 0.009766 0.000000 0.000000 -0.097656 0.000000 0.000000 0.000000 -0.019531 0.000000 0.009766 0.019531 -0.009766 0.166016 0.009766 0.000000 
0.000000 23.151886 0.000000 0.000000 0.000000 0.000000 5.228286 -0.789933 10.271686 9.185943 -1.642579 13.424131 0.000000 0.000000 -13.509609 -18.913816 -4.834150 -16.961380 0.000000 0.000000 0.000000 0.000000 0.000000 0.000000 0.000000 0.000000 0.000000 0.000000 0.000000 0.000000 23.477118 1.073626 -4.781575 56.884533 24.398218 -10.633335 38.248413 0.747144 -19.927145 0.000000 0.000000 7.989127 0.000000 0.000000 0.000000 0.009766 0.000000 0.000000 -0.097656 0.000000 0.000000 0.000000 -0.019531 0.000000 0.009766 0.019531 -0.009766 0.166016 0.009766 0.000000 
0.000000 23.151886 0.000000 0.000000 0.000000 0.000000 5.183663 -0.801479 10.262614 9.532536 -1.647314 13.427129 0.000000 0.000000 -13.505974 -18.564569 -4.596757 -16.693062 0.000000 0.000000 0.000000 0.000000 0.000000 0.000000 0.000000 0.000000 0.000000 0.000000 0.000000 0.000000 23.438124 0.851816 -4.952116 57.113235 24.362076 -10.584834 38.255928 0.728706 -19.916737 0.000000 0.000000 7.582858 0.000000 0.000000 0.000000 0.009766 0.000000 0.000000 -0.097656 0.000000 0.000000 0.000000 -0.019531 0.000000 0.009766 0.019531 -0.009766 0.166016 0.009766 0.000000 
0.000000 23.151886 0.000000 0.000000 0.000000 0.000000 5.139748 -0.812589 10.253860 9.879128 -1.651715 13.430021 0.000000 0.000000 -13.502339 -18.138237 -4.354564 -16.351114 0.000000 0.000000 0.000000 0.000000 0.000000 0.000000 0.000000 0.000000 0.000000 0.000000 0.000000 0.000000 23.342213 0.642336 -5.104007 57.335487 24.334457 -10.483348 38.135590 0.702427 -19.906330 0.000000 0.000000 7.168508 0.000000 0.000000 0.000000 0.009766 0.000000 0.000000 -0.097656 0.000000 0.000000 0.000000 -0.019531 0.000000 0.009766 0.019531 -0.009766 0.166016 0.009766 0.000000 
0.000000 23.151886 0.000000 0.000000 0.000000 0.000000 5.097194 -0.823194 10.245488 10.225721 -1.655814 13.432788 0.000000 0.000000 -13.498705 -17.628605 -4.108401 -15.928445 0.000000 0.000000 0.000000 0.000000 0.000000 0.000000 0.000000 0.000000 0.000000 0.000000 0.000000 0.000000 23.181429 0.448185 -5.235499 57.557758 24.314140 -10.316916 37.862526 0.669152 -19.895924 0.000000 0.000000 6.747482 0.000000 0.000000 0.000000 0.009766 0.000000 0.000000 -0.097656 0.000000 0.000000 0.000000 -0.019531 0.000000 0.009766 0.019531 -0.009766 0.166016 0.009766 0.000000 
0.000000 23.151886 0.000000 0.000000 0.000000 0.000000 5.056803 -0.833169 10.237607 10.572314 -1.659611 13.435395 0.000000 0.000000 -13.495070 -17.029463 -3.859084 -15.417962 0.000000 0.000000 0.000000 0.000000 0.000000 0.000000 0.000000 0.000000 0.000000 0.000000 0.000000 0.000000 22.947819 0.272364 -5.344840 57.786503 24.253601 -10.073585 37.411858 0.629694 -19.885515 0.000000 0.000000 6.321162 0.000000 0.000000 0.000000 0.009766 0.000000 0.000000 -0.097656 0.000000 0.000000 0.000000 -0.019531 0.000000 0.009766 0.019531 -0.009766 0.166016 0.009766 0.000000 
0.000000 23.151886 0.000000 0.000000 0.000000 0.000000 5.019839 -0.842256 10.230421 10.918907 -1.663045 13.437774 0.000000 0.000000 -13.491434 -16.334600 -3.607409 -14.812578 0.000000 0.000000 0.000000 0.000000 0.000000 0.000000 0.000000 0.000000 0.000000 0.000000 0.000000 0.000000 22.633427 0.117874 -5.430277 58.028194 23.920042 -9.741395 36.758701 0.584832 -19.875107 0.000000 0.000000 5.890901 0.000000 0.000000 0.000000 0.009766 0.000000 0.000000 -0.097656 0.000000 0.000000 0.000000 -0.019531 0.000000 0.009766 0.019531 -0.009766 0.166016 0.009766 0.000000 
0.000000 23.151886 0.000000 0.000000 0.000000 0.000000 4.989860 -0.849617 10.224600 11.265500 -1.665820 13.439700 0.000000 0.000000 -13.487800 -15.537800 -3.354158 -14.105200 0.000000 0.000000 0.000000 0.000000 0.000000 0.000000 0.000000 0.000000 0.000000 0.000000 0.000000 0.000000 22.230301 -0.012286 -5.490060 58.289299 23.034338 -9.308390 35.878201 0.535316 -19.864700 0.000000 0.000000 5.458022 0.000000 0.000000 0.000000 0.009766 0.000000 0.000000 -0.097656 0.000000 0.000000 0.000000 -0.019531 0.000000 0.009766 0.019531 -0.009766 0.166016 0.009766 0.000000 
0.000000 23.151886 0.000000 0.000000 0.000000 0.000000 4.652624 -0.849617 9.494271 10.501094 -1.665820 12.479721 0.000000 0.000000 -12.524385 -14.636517 -3.100105 -13.292515 0.000000 0.000000 0.000000 0.000000 0.000000 0.000000 0.000000 0.000000 0.000000 0.000000 0.000000 0.000000 21.733990 -0.116091 -5.523245 58.578129 21.401217 -8.767121 34.755184 0.481860 -18.802000 0.000000 0.000000 5.023838 0.000000 0.000000 0.000000 0.009766 0.000000 0.000000 -0.097656 0.000000 0.000000 0.000000 -0.019531 0.000000 0.009766 0.019531 -0.009766 0.166016 0.009766 0.000000 
0.000000 23.151886 0.000000 0.000000 0.000000 0.000000 4.273483 -0.849617 8.673193 9.641704 -1.665820 11.400457 0.000000 0.000000 -11.560971 -13.644010 -2.846011 -12.387549 0.000000 0.000000 0.000000 0.000000 0.000000 0.000000 0.000000 0.000000 0.000000 0.000000 0.000000 0.000000 21.155277 -0.195938 -5.532599 58.910343 19.160751 -8.129642 33.416748 0.425149 -17.739300 0.000000 0.000000 4.589644 0.000000 0.000000 0.000000 0.009766 0.000000 0.000000 -0.097656 0.000000 0.000000 0.000000 -0.019531 0.000000 0.009766 0.019531 -0.009766 0.166016 0.009766 0.000000 
0.000000 23.151886 0.000000 0.000000 0.000000 0.000000 3.895544 -0.849617 7.854716 8.785037 -1.665820 10.324614 0.000000 0.000000 -10.597557 -12.576875 -2.592644 -11.406796 0.000000 0.000000 0.000000 0.000000 0.000000 0.000000 0.000000 0.000000 0.000000 0.000000 0.000000 0.000000 20.508202 -0.255168 -5.521654 59.303452 16.536884 -7.412232 31.899071 0.365840 -16.676600 0.000000 0.000000 4.156742 0.000000 0.000000 0.000000 0.009766 0.000000 0.000000 -0.097656 0.000000 0.000000 0.000000 -0.019531 0.000000 0.009766 0.019531 -0.009766 0.166016 0.009766 0.000000 
